<svg id="Layer_1" data-name="Layer 1" xmlns="http://www.w3.org/2000/svg" viewBox="0 0 768 873.3"><defs><style>.cls-1{fill:#010101;}</style></defs><title>css</title><path class="cls-1" d="M739.54,0H28.43C11.4,0-1.38,14.41.12,31.45L65.07,759.3c1.51,17,16.23,34.83,32.74,39.43l256,71.12c16.49,4.57,43.44,4.6,59.95.06l256.36-71c16.52-4.59,31.24-22.24,32.74-39.29l65-728.15C769.38,14.41,756.66,0,739.54,0ZM616.21,262.73a.25.25,0,0,1-.21.22.24.24,0,0,1-.26-.14L415.13,345a6.47,6.47,0,0,0,2.45,12.45h156a29.27,29.27,0,0,1,29.1,32.36L578.33,618.53A29.23,29.23,0,0,1,559,643L393.33,701.31a29.27,29.27,0,0,1-19.29,0l-164.85-57.1a29.27,29.27,0,0,1-19.52-24.54l-11-103.58a19.27,19.27,0,0,1,19.17-21.32h45.87A19.27,19.27,0,0,1,262.83,512l6.78,63.67,114.14,39.68,114.67-40,14-132H188.24a19.27,19.27,0,0,1-19.16-17.17l-6.18-56a19.29,19.29,0,0,1,11.81-19.94l207.5-85.54a5.33,5.33,0,0,0-2-10.26H161.72a12.84,12.84,0,0,1-12.78-11.5l-6.32-60.15A12.85,12.85,0,0,1,155.4,168.6H612.51a12.84,12.84,0,0,1,12.76,14.3Z"/></svg>