<svg id="Layer_1" data-name="Layer 1" xmlns="http://www.w3.org/2000/svg" viewBox="0 0 768 767.76"><defs><style>.cls-1{fill:#010101;}</style></defs><title>git</title><path class="cls-1" d="M384,55.12a52.7,52.7,0,0,0-37.7,15.42l-77.11,78a28,28,0,0,0-10.28,9.42L15.58,401.26a53.41,53.41,0,0,0,0,75.4L346.3,807.38a53.59,53.59,0,0,0,75.4,0L752.42,476.66a53.41,53.41,0,0,0,0-75.4L421.7,70.54A52.7,52.7,0,0,0,384,55.12Zm0,55.69L712.15,439,384,767.11,55.85,439l227.05-227,48,48a55.68,55.68,0,0,0,25.7,61.69V556.34a54.83,54.83,0,1,0,54.84,0v-215l84,84A52.79,52.79,0,0,0,493.67,439a54.84,54.84,0,1,0,54.83-54.83,52.84,52.84,0,0,0-13.71,1.71l-97.67-97.67a52.84,52.84,0,0,0,1.71-13.71A54.8,54.8,0,0,0,384,219.62a54.17,54.17,0,0,0-14.57,1.72l-48-48Z" transform="translate(0 -55.12)"/></svg>