<svg id="Layer_1" data-name="Layer 1" xmlns="http://www.w3.org/2000/svg" viewBox="0 0 767.7 871.19"><defs><style>.cls-1{fill:#010101;}</style></defs><title>html</title><path class="cls-1" d="M13.33,3.57A13.11,13.11,0,0,0,.07,18.07l67.5,757.16c.71,8,7.61,16.25,15.33,18.39l286.44,79.54c7.72,2.14,20.34,2.14,28.06,0L684.72,793.5c7.71-2.14,14.61-10.42,15.32-18.39l67.62-757A13.11,13.11,0,0,0,754.4,3.57ZM623.9,177.23c-.63,7.11-1.74,19.46-2.45,27.43l-1.78,19.87c-.71,8-1.73,19.37-2.27,25.33s-1,10.84-1.14,10.84H262a13.11,13.11,0,0,0-13.26,14.5L255,345a16.26,16.26,0,0,0,15.85,14.5H594.66a11.66,11.66,0,0,1,11.79,12.93c-.65,7.11-1.76,19.47-2.47,27.44L583.92,624.67c-.72,8-1.62,18.17-2,22.65s-7,9.88-14.75,12L397.9,706.28l-14.25,3.93c-.12,0-6.53-1.71-14.25-3.85L200,659.35c-7.71-2.14-14.61-10.42-15.32-18.4L173.73,518.54A13.12,13.12,0,0,1,187,504h67.64a16.27,16.27,0,0,1,15.86,14.5l4.27,47.92c.71,8,7.62,16.2,15.35,18.29l79.26,21.4c7.72,2.09,14.08,3.8,14.11,3.8s6.39-1.71,14.12-3.8L477,584.7c7.72-2.09,14.63-10.33,15.35-18.3l8.61-96a13.1,13.1,0,0,0-13.26-14.5h-305a16.26,16.26,0,0,1-15.84-14.5L145.71,204.66c-.71-8-1.81-20.32-2.45-27.44s5.4-12.93,13.4-12.93H610.5C618.5,164.29,624.54,170.11,623.9,177.23Z" transform="translate(-0.01 -3.57)"/></svg>