<svg id="Layer_1" data-name="Layer 1" xmlns="http://www.w3.org/2000/svg" viewBox="0 0 651.15 878"><defs><style>.cls-1{fill:#010101;}</style></defs><title>java</title><path class="cls-1" d="M380,162.68c-40.57,28.54-86.55,60.88-111.19,114.38C226,370.41,356.35,472.23,361.92,476.52a7.2,7.2,0,0,0,10.78-9c-.48-.91-47.27-91.79-45.53-157,.62-22.7,32.4-48.47,66.05-75.74,30.81-25,65.74-53.3,86.18-86.42,44.87-72.91-5-144.6-5.51-145.31A7.19,7.19,0,0,0,461,8.7c.1.47,9.8,47.88-17.19,96.72C432.68,125.61,408.26,142.79,380,162.68Z" transform="translate(-58.74 0)"/><path class="cls-1" d="M550.89,194.83A7.19,7.19,0,0,0,544,182.36c-6.9,2.62-168.77,65-168.77,140.41,0,52,22.2,79.43,38.41,99.48,6.36,7.86,11.85,14.65,13.65,20.45,5.1,16.7-7,46.9-12,57.13a7.19,7.19,0,0,0,10.55,9.1c2.79-1.93,68-48.06,56.32-103.63-4.35-21.12-14.74-36.56-23.9-50.18-14.18-21.1-24.43-36.34-8.88-64.49C467.57,257.8,550.06,195.46,550.89,194.83Z" transform="translate(-58.74 0)"/><path class="cls-1" d="M129.53,511.42a25.54,25.54,0,0,0,3.78,23.85c17.55,24.36,79.71,37.78,175,37.78h0c12.92,0,26.56-.26,40.52-.76,152.41-5.46,208.94-52.93,211.27-54.95a7.2,7.2,0,0,0-6.6-12.39c-53.68,14.66-153.91,19.86-223.43,19.86-77.79,0-117.41-5.6-127.1-9.74,5-6.83,35.67-19,73.71-26.52a7.2,7.2,0,0,0-1.39-14.26C253,474.3,141.21,476.09,129.53,511.42Z" transform="translate(-58.74 0)"/><path class="cls-1" d="M639.51,462.53c-31.44,0-61.25,15.75-62.5,16.42a7.2,7.2,0,0,0,3.39,13.54c.67,0,67.05.55,73.07,38.47,5.32,32.73-62.82,85.75-89.52,103.42a7.2,7.2,0,0,0,4,13.2,7,7,0,0,0,1.5-.17c6.34-1.35,155-34.11,139.31-120.69C699.14,473.66,665.79,462.53,639.51,462.53Z" transform="translate(-58.74 0)"/><path class="cls-1" d="M537.54,623.78a7.21,7.21,0,0,0-2.95-7.21l-35.65-25a7.22,7.22,0,0,0-6-1.06c-.37.09-37.65,9.89-91.78,15.9a637,637,0,0,1-69.6,3.69c-54.11,0-89.5-6.36-94.65-11-.68-1.31-.47-1.9-.35-2.23.94-2.61,6-5.7,9.19-6.93a7.19,7.19,0,0,0-4.18-13.74c-35.77,8.63-53.26,20.7-52,35.87,2.26,26.89,64.56,40.7,117.23,44.35,7.57.52,15.77.79,24.34.79h0c87.58,0,199.86-27.48,201-27.76A7.2,7.2,0,0,0,537.54,623.78Z" transform="translate(-58.74 0)"/><path class="cls-1" d="M268.74,681.51a7.2,7.2,0,0,0-4.12-13.22c-4.79.13-46.9,2-49.85,28.84a27.87,27.87,0,0,0,6.82,21.75c15.12,17.92,55.93,28.57,124.74,32.56,8.14.48,16.41.73,24.59.73,87.48,0,146.4-27.39,148.86-28.56a7.2,7.2,0,0,0,.68-12.65l-45.06-27.5a7.29,7.29,0,0,0-5.22-.91c-.28.06-28.89,6-72.06,11.86a232.66,232.66,0,0,1-30.41,1.67c-43.13,0-91.1-7-100.3-11.65A2.91,2.91,0,0,1,268.74,681.51Z" transform="translate(-58.74 0)"/><path class="cls-1" d="M330.14,834.87c200.39-.17,307.94-35.8,328.66-58.23,7.33-7.94,8.13-15.45,7.5-20.35-1.54-12.07-12.53-19.46-13.78-20.27a7.28,7.28,0,0,0-9.39,1.28,7.12,7.12,0,0,0,0,9.37c1.26,1.62,2,4.34-1.7,8-8.28,7.74-91.82,31.22-230.91,38.27-19.06,1-39,1.49-59.4,1.5-124.54,0-215.68-17.06-227.64-27,4.61-6.63,36.85-17.21,71.13-23.2a7.2,7.2,0,0,0-2.2-14.22c-1,.13-4.24.33-8.05.56C127.74,734.07,62.37,741.77,59,770.92c-1,8.88,1.6,16.94,7.85,24,15.27,17.17,59.19,40,263.33,40Z" transform="translate(-58.74 0)"/><path class="cls-1" d="M698.16,783a7.18,7.18,0,0,0-8.29,1.63c-.3.32-30.43,31.82-121,50.32-34.68,7-99.78,10.47-193.48,10.47-93.88,0-183.21-3.69-184.1-3.73a7.2,7.2,0,0,0-2,14.2c.93.22,94.55,22.15,222.55,22.15,61.4,0,121.14-5,177.57-14.83C694.66,844.73,702,792.55,702.28,790.34A7.19,7.19,0,0,0,698.16,783Z" transform="translate(-58.74 0)"/></svg>