<svg id="Layer_1" data-name="Layer 1" xmlns="http://www.w3.org/2000/svg" viewBox="0 0 768 866.05"><defs><style>.cls-1{fill:#010101;}</style></defs><title>js</title><path class="cls-1" d="M384,872a66.35,66.35,0,0,1-33.27-8.92l-106-62.68c-15.81-8.84-8.08-12-2.89-13.82,21.11-7.32,25.37-9,47.92-21.79,2.35-1.34,5.45-.83,7.87.61L379,813.75a10.5,10.5,0,0,0,9.81,0L706.22,630.58a10,10,0,0,0,4.84-8.59V255.73a10.2,10.2,0,0,0-4.95-8.73L388.89,64a10.07,10.07,0,0,0-9.78,0L62,247a10.24,10.24,0,0,0-5,8.7V622a9.72,9.72,0,0,0,5,8.48l86.93,50.23c47.16,23.6,76.06-4.18,76.06-32.11V287a9.12,9.12,0,0,1,9.24-9.13h40.24a9.18,9.18,0,0,1,9.2,9.13V648.59c0,63-34.28,99-94,99-18.33,0-32.8,0-73.1-19.88L33.27,679.87A67,67,0,0,1,0,622V255.73a67,67,0,0,1,33.27-57.85L350.64,14.5c20.1-11.37,46.77-11.37,66.68,0L734.66,197.88A67,67,0,0,1,768,255.73V622a67.11,67.11,0,0,1-33.34,57.88L417.32,863.11A66.14,66.14,0,0,1,384,872ZM640.19,510.92c0-68.56-46.34-86.82-143.87-99.7-98.55-13-108.59-19.78-108.59-42.83,0-19.06,8.48-44.5,81.49-44.5,65.2,0,89.23,14,99.12,58a9.16,9.16,0,0,0,8.91,7.18h41.18a9.38,9.38,0,0,0,6.71-2.92,9.28,9.28,0,0,0,2.42-7.07c-6.39-75.71-56.69-111-158.34-111-90.51,0-144.49,38.18-144.49,102.23,0,69.46,53.69,88.66,140.55,97.25,103.93,10.17,112,25.37,112,45.79,0,35.47-28.47,50.59-95.33,50.59-84,0-102.45-21.07-108.66-62.86a9.2,9.2,0,0,0-9.12-7.76h-41a9.1,9.1,0,0,0-9.17,9.13c0,53.48,29.09,117.21,168,117.21C582.52,619.68,640.19,580.1,640.19,510.92Z" transform="translate(0 -5.97)"/></svg>