<svg id="Layer_1" data-name="Layer 1" xmlns="http://www.w3.org/2000/svg" viewBox="0 0 768 275.31"><defs><style>.cls-1{fill:#424339;}.cls-2{fill:#88c541;}</style></defs><title>node</title><path class="cls-1" d="M516.83,301.35a4.12,4.12,0,0,0-4.12,4.12v105a2.81,2.81,0,0,1-1.37,2.47,2.92,2.92,0,0,1-2.89,0L491.27,403a8.25,8.25,0,0,0-8.24,0l-68.55,39.53a8.44,8.44,0,0,0-4.11,7.28v79a8.23,8.23,0,0,0,4.11,7.14L483,575.54a8.15,8.15,0,0,0,8.24,0L559.81,536a8.22,8.22,0,0,0,4.13-7.14V331.81a8.41,8.41,0,0,0-4.25-7.27l-40.76-22.77a4.09,4.09,0,0,0-2.06-.42ZM76.34,400a7.52,7.52,0,0,0-3.7,1L4.11,440.52A8.18,8.18,0,0,0,0,447.65L.14,553.74A4.05,4.05,0,0,0,2.2,557.3a4,4,0,0,0,4.11,0L46.93,534a8.36,8.36,0,0,0,4.25-7.13V477.33a8.19,8.19,0,0,1,4.13-7.14l17.29-10a8,8,0,0,1,4.11-1.1,8.14,8.14,0,0,1,4.11,1.1l17.31,10a8.21,8.21,0,0,1,4.11,7.14v49.51a8.4,8.4,0,0,0,4.25,7.14l40.62,23.33a4,4,0,0,0,4.13,0,4.16,4.16,0,0,0,2.06-3.57l.12-106.08a8.08,8.08,0,0,0-4.11-7.13L80.82,401a7.7,7.7,0,0,0-3.69-1Zm615.35,1a8.13,8.13,0,0,0-4.11,1.09l-68.47,39.53a8.26,8.26,0,0,0-4.13,7.13v79a8.27,8.27,0,0,0,4.26,7.13l67.94,38.71a8.24,8.24,0,0,0,8.09.14l41.17-22.93a4.18,4.18,0,0,0,2.2-3.57,4.06,4.06,0,0,0-2.06-3.56l-68.86-39.52a4.41,4.41,0,0,1-2.2-3.71V475.82a4.21,4.21,0,0,1,2.2-3.57l21.4-12.35a4.08,4.08,0,0,1,4.11,0l21.42,12.35a4.13,4.13,0,0,1,2.05,3.57V495.3a4.11,4.11,0,0,0,6.17,3.57l41-23.88a8.23,8.23,0,0,0,4.09-7.17v-19a8.24,8.24,0,0,0-4.11-7.13l-68.07-39.53a8.32,8.32,0,0,0-4.13-1.1ZM486.91,460a2.29,2.29,0,0,1,1.09.27l23.48,13.58a2.14,2.14,0,0,1,1.09,1.79v27.17a2.16,2.16,0,0,1-1.09,1.79L488,518.18a2,2,0,0,1-2.05,0L462.48,504.6a2.15,2.15,0,0,1-1.1-1.79V475.64a2.16,2.16,0,0,1,1.1-1.79L486,460.27A1.81,1.81,0,0,1,486.91,460Z" transform="translate(0 -301.34)"/><path class="cls-2" d="M282,400.57a8.24,8.24,0,0,0-4.11,1.1L209.42,441a8.46,8.46,0,0,0-4.12,7.28v79a8.24,8.24,0,0,0,4.12,7.14L277.9,574a8.15,8.15,0,0,0,8.24,0l68.47-39.51a8.24,8.24,0,0,0,4.12-7.14v-79a8.42,8.42,0,0,0-4.12-7.27l-68.47-39.35A8.2,8.2,0,0,0,282,400.57Zm409.52,70.54a1.59,1.59,0,0,0-.83.14l-13.17,7.69a1.61,1.61,0,0,0-.83,1.37v15.1a1.61,1.61,0,0,0,.83,1.37l13.17,7.55a1.48,1.48,0,0,0,1.52,0l13.17-7.55a1.61,1.61,0,0,0,.81-1.37v-15.1a1.59,1.59,0,0,0-.81-1.37l-13.17-7.69A1.11,1.11,0,0,0,691.53,471.11Z" transform="translate(0 -301.34)"/></svg>