<svg id="Layer_1" data-name="Layer 1" xmlns="http://www.w3.org/2000/svg" viewBox="0 0 768 683.31"><defs><style>.cls-1{fill:#010101;}</style></defs><title>react</title><path class="cls-1" d="M384,370.54A68.45,68.45,0,1,0,452.45,439,68.45,68.45,0,0,0,384,370.54ZM192.26,575.14l-15.11-3.84C64.58,542.86,0,494.57,0,438.86s64.58-104,177.15-132.45l15.11-3.81,4.25,15a753,753,0,0,0,43.62,114.49l3.23,6.82-3.23,6.81a746,746,0,0,0-43.62,114.5ZM170.14,341.38c-85.56,24-138.08,60.8-138.08,97.48s52.52,73.4,138.08,97.47A798.48,798.48,0,0,1,208,438.86,793.15,793.15,0,0,1,170.14,341.38Zm405.6,233.76-4.25-15a746.84,746.84,0,0,0-43.65-114.47l-3.23-6.81,3.23-6.82a749.26,749.26,0,0,0,43.65-114.5l4.25-15,15.14,3.81C703.42,334.82,768,383.11,768,438.86s-64.58,104-177.12,132.44ZM560,438.86a790.91,790.91,0,0,1,37.83,97.47c85.6-24.07,138.08-60.83,138.08-97.47s-52.52-73.41-138.08-97.48A793.15,793.15,0,0,1,560,438.86ZM169.92,341.22l-4.26-14.94C134,214.73,143.62,134.79,192,106.89c47.46-27.39,123.65,5,203.49,86.91L406.37,205l-10.88,11.17A754,754,0,0,0,318,311.08l-4.32,6.18-7.52.64A756.42,756.42,0,0,0,185,337.42Zm60.67-212.16c-8.57,0-16.16,1.86-22.56,5.54-31.81,18.34-37.44,82.08-15.52,168.1a803.15,803.15,0,0,1,103.46-16,795.68,795.68,0,0,1,65.66-81.4C311.71,156.65,264.45,129.06,230.59,129.06ZM537.44,780.65h0c-45.6,0-104.16-34.34-164.93-96.74l-10.88-11.17,10.88-11.16a753.19,753.19,0,0,0,77.47-95l4.32-6.18,7.49-.64A755.9,755.9,0,0,0,583,540.3l15.1-3.81,4.29,15C634,663,624.38,742.92,576,770.79A76.11,76.11,0,0,1,537.44,780.65ZM406.37,672.46c49.92,48.6,97.18,76.19,131,76.19h0c8.54,0,16.16-1.86,22.53-5.54C591.78,724.78,597.44,661,575.49,575A800.14,800.14,0,0,1,472,591,790.77,790.77,0,0,1,406.37,672.46ZM598.08,341.22l-15.1-3.8A751.53,751.53,0,0,0,461.79,317.9l-7.49-.64L450,311.08a747.93,747.93,0,0,0-77.47-94.94L361.63,205l10.88-11.17c79.81-81.92,156-114.27,203.49-86.91,48.38,27.9,58,107.84,26.37,219.36ZM472,286.66a798,798,0,0,1,103.49,16c22-86,16.29-149.76-15.52-168.1-31.62-18.27-91,9.73-153.6,70.66A795.39,795.39,0,0,1,472,286.66Zm-241.41,494A76.22,76.22,0,0,1,192,770.79C143.62,742.92,134,663,165.66,551.46l4.23-15L185,540.3c37,9.31,77.73,15.87,121.12,19.48l7.52.64,4.29,6.18a755.89,755.89,0,0,0,77.5,95l10.88,11.16-10.88,11.17C334.69,746.31,276.13,780.65,230.59,780.65ZM192.51,575c-21.95,86-16.29,149.8,15.52,168.13,31.59,18,91-9.76,153.6-70.65A801.05,801.05,0,0,1,296,591,799.69,799.69,0,0,1,192.51,575ZM384,595.08c-26.34,0-53.41-1.15-80.51-3.39l-7.52-.64-4.32-6.18q-23-33-43.2-67.9t-37.31-71.3l-3.2-6.81,3.2-6.82q17.16-36.41,37.31-71.3c13.25-22.91,27.81-45.76,43.2-67.9l4.32-6.18,7.52-.64a953.87,953.87,0,0,1,161.05,0l7.49.64,4.29,6.18A960,960,0,0,1,556.86,432l3.24,6.82-3.24,6.81a946.32,946.32,0,0,1-80.54,139.2L472,591.05l-7.49.64C437.44,593.93,410.34,595.08,384,595.08Zm-70.3-34.69a930,930,0,0,0,140.64,0,929.34,929.34,0,0,0,70.27-121.53A914.06,914.06,0,0,0,454.3,317.32a929.42,929.42,0,0,0-140.6,0,911.24,911.24,0,0,0-70.31,121.54A931.87,931.87,0,0,0,313.7,560.39Z" transform="translate(0 -97.34)"/></svg>