<svg id="Layer_1" data-name="Layer 1" xmlns="http://www.w3.org/2000/svg" viewBox="0 0 767.98 765.92"><defs><style>.cls-1{fill:#010101;}</style></defs><title>vsc</title><path class="cls-1" d="M530.57,58.34c-3.87,1.66-67.37,58-140.8,125.34C261.12,301.84,236.27,331.1,263.88,330.55c5.52-.55,70.67-55.77,145.21-124.23,74-67.92,136.94-122,139.14-120.92,2.21,1.66,4.42,43.07,4.42,92.21v89.44l-88.34,66.26c-85.58,64.05-97.18,75.65-90.55,86.14,6.62,11,23.19,2.21,99.38-55.77C517.31,330,554.31,302.94,556,302.94c1.11,0,2.21,62.4,2.21,138V579.57L468.73,511.1c-344-261.71-362.21-274.41-385.4-274.41-19.33,0-25.95,3.86-52.46,29.26C-2.81,298.53-7.22,315.64,10.44,342.7c7.18,11,240.19,226.38,496.38,458.28,13.26,11.59,28.72,21,34.79,21C562,822,736.52,739.69,753.08,722L768,706V438.77c0-256.19-.55-267.24-11-280.49-6.63-8.83-48-30.92-109.33-58.53C547.68,53.93,544.92,52.82,530.57,58.34ZM658.66,136.2c37.55,17.66,71.78,37,76.2,42.51,7.18,8.28,8.28,46.38,9.94,247.91,1.1,165.65,0,244.61-4.42,259-6.62,22.64-12.15,25.95-130.86,79l-29.26,12.7V440.43c0-207.06,2.21-336.26,5-336.26C588.54,104.17,621.12,118.53,658.66,136.2ZM327.93,441.53,558.17,614.91v82.82c0,90-3.31,102.7-20.43,90.55C504.06,764,28.11,322.27,28.11,315.09c0-13.8,45.28-51.9,58.53-49.14C92.71,267.05,201.49,346,327.93,441.53Z" transform="translate(-0.01 -56.04)"/><path class="cls-1" d="M44.68,500.61C-2.81,546.44-7.78,558.59,8.24,589c8.83,16.56,40.3,42.51,60.18,50.24,21.53,8.28,35.89,1.66,91.1-39.2,34.79-26,50.8-41.41,49.7-47.49-3.32-17.66-18.78-12.14-65.16,23.75C118.11,595.58,91.61,612.15,85,612.15c-14.35,0-56.87-35.89-56.87-48,0-4.42,19.33-26.5,42.52-48C101,486.81,112,473.56,109.28,466.93,102.65,449.81,89.4,457,44.68,500.61Z" transform="translate(-0.01 -56.04)"/></svg>