<?xml version="1.0" standalone="no"?>
<!DOCTYPE svg PUBLIC "-//W3C//DTD SVG 20010904//EN"
 "http://www.w3.org/TR/2001/REC-SVG-20010904/DTD/svg10.dtd">
<svg version="1.0" xmlns="http://www.w3.org/2000/svg"
 width="800.000000pt" height="800.000000pt" viewBox="0 0 800.000000 800.000000"
 preserveAspectRatio="xMidYMid meet">
<metadata>
Created by potrace 1.16, written by Peter Selinger 2001-2019
</metadata>
<g transform="translate(0.000000,800.000000) scale(0.100000,-0.100000)"
fill="#000000" stroke="none">
<path d="M6896 7631 c-26 -28 -30 -29 -41 -14 -12 15 -20 14 -101 -20 -88 -36
-130 -40 -161 -15 -17 13 -46 -4 -128 -77 -58 -51 -83 -66 -142 -84 l-73 -21
-41 30 c-23 16 -51 30 -61 30 -27 0 -78 -54 -78 -83 0 -35 -23 -49 -143 -87
-83 -26 -110 -31 -119 -22 -25 25 -72 14 -109 -24 -40 -42 -85 -64 -132 -64
-19 0 -59 -11 -90 -25 l-55 -26 -37 26 c-53 36 -97 20 -190 -66 -22 -20 -56
-35 -116 -51 l-86 -22 -39 32 c-21 18 -47 32 -58 32 -32 0 -84 -42 -108 -88
-21 -39 -29 -44 -88 -61 -109 -32 -122 -33 -155 -11 -54 36 -102 21 -119 -37
-10 -32 -28 -43 -113 -68 -43 -13 -92 -29 -110 -36 -27 -11 -37 -10 -71 5 -49
22 -68 17 -135 -38 -29 -23 -72 -48 -97 -55 -165 -50 -169 -50 -185 -35 -13
13 -21 11 -69 -16 -30 -16 -61 -30 -67 -30 -7 0 -24 -11 -38 -24 -73 -68
-1036 -316 -1376 -354 -33 -4 -181 -7 -330 -7 -288 1 -349 9 -429 56 -35 20
-36 20 -97 2 -33 -10 -65 -26 -70 -35 -5 -10 -19 -18 -30 -18 -11 0 -32 -12
-47 -27 -24 -24 -25 -28 -9 -31 14 -3 17 -10 11 -40 -3 -20 -8 -46 -11 -57 -6
-19 -11 -56 -14 -100 -1 -11 -14 -62 -30 -113 -16 -51 -29 -104 -29 -118 0
-17 -7 -28 -20 -31 -33 -9 -22 -30 13 -24 4 0 7 -8 7 -19 0 -11 -4 -20 -10
-20 -5 0 -10 -24 -10 -54 0 -47 4 -57 27 -75 14 -12 38 -24 51 -28 30 -7 73
-53 67 -70 -2 -7 2 -10 10 -7 18 7 122 -48 173 -92 36 -30 40 -32 55 -17 15
15 20 14 67 -15 28 -18 55 -32 60 -32 5 0 10 12 12 28 l3 27 28 -32 c30 -33
67 -49 67 -29 0 7 -5 17 -12 24 -20 20 61 15 127 -8 32 -11 75 -20 96 -20 51
0 85 -14 92 -39 6 -23 35 -39 46 -25 14 20 62 34 81 24 28 -15 37 -12 44 14 7
29 32 56 52 56 11 0 14 -15 14 -64 0 -43 5 -67 15 -76 12 -10 15 -7 20 12 6
23 13 25 117 37 92 11 112 11 119 -1 7 -10 11 -7 15 11 6 21 11 22 48 17 23
-4 42 -11 44 -15 1 -4 14 -6 28 -3 17 3 29 -1 38 -14 12 -16 16 -16 47 -2 31
14 122 29 192 32 15 1 27 4 27 9 0 4 5 7 10 7 10 0 9 -13 -12 -100 -20 -84
-39 -135 -60 -157 -18 -19 -19 -27 -10 -63 10 -42 1 -103 -18 -115 -6 -4 -10
-19 -10 -35 0 -22 4 -28 15 -24 20 8 20 14 -19 -192 -19 -99 -40 -208 -46
-244 -18 -110 -21 -120 -36 -120 -8 0 -14 -4 -14 -10 0 -5 7 -10 16 -10 10 0
14 -6 10 -17 -16 -56 -139 -772 -241 -1408 -48 -298 -131 -883 -140 -981 -12
-141 -29 -264 -37 -264 -4 0 -8 -103 -8 -230 l0 -230 24 0 c14 0 28 5 31 10 3
6 14 10 23 10 9 1 27 9 40 20 28 23 46 114 47 236 0 79 0 80 24 76 22 -5 23
-8 18 -61 -3 -31 -10 -114 -17 -186 -6 -71 -15 -150 -21 -175 -5 -25 -12 -76
-15 -115 -3 -38 -10 -88 -14 -111 -12 -51 2 -103 32 -126 20 -14 20 -18 8 -34
-13 -15 -13 -17 -1 -9 8 5 44 10 80 12 87 5 97 17 106 129 7 81 20 114 47 114
5 0 19 11 30 25 11 14 26 25 33 25 8 0 13 11 13 28 -1 82 37 263 68 325 10 18
12 33 5 45 -5 10 -4 41 3 81 13 73 33 94 67 73 27 -17 45 -3 53 43 7 38 34 52
65 36 11 -6 28 -11 37 -11 23 0 94 76 94 100 0 10 9 25 20 33 11 8 20 24 19
38 -1 30 7 89 14 109 4 8 9 42 12 75 3 33 7 74 10 90 3 17 7 86 9 155 2 69 10
227 17 352 13 221 14 228 34 228 12 0 27 6 33 12 10 10 17 10 33 0 13 -9 18
-9 14 -2 -4 6 0 17 10 24 11 8 19 36 25 83 5 39 18 86 28 105 24 42 38 118 23
118 -16 0 -13 21 6 42 13 15 14 18 1 18 -13 0 -13 10 0 90 12 72 18 90 31 88
12 -2 15 4 14 29 -2 17 2 35 7 38 6 3 10 21 10 40 0 18 3 35 8 37 7 3 42 62
42 72 0 3 -7 6 -15 6 -16 0 -21 25 -6 34 5 3 19 61 31 128 12 68 25 132 30
143 14 32 30 115 35 185 3 36 10 90 15 120 5 30 11 75 14 100 4 25 8 56 11 70
3 14 8 47 11 75 3 27 10 72 15 98 5 27 12 85 15 130 3 45 10 84 15 85 5 2 7 7
4 12 -2 4 1 54 9 111 9 71 10 110 4 123 -17 32 -4 114 23 142 20 22 23 34 21
86 -2 35 2 66 9 74 8 10 8 18 1 27 -6 7 -10 55 -10 111 1 110 7 118 63 92 19
-10 40 -14 45 -11 16 10 12 62 -5 69 -21 8 -19 48 4 73 10 11 58 32 105 47 91
28 104 27 140 -13 11 -12 25 -21 32 -21 7 0 14 -5 16 -12 6 -17 57 23 58 45 0
9 4 17 9 17 5 0 14 14 21 30 14 34 30 40 30 11 0 -12 9 -20 25 -23 21 -4 23
-2 15 13 -6 10 -10 22 -10 28 0 19 32 41 61 41 16 0 29 4 29 8 0 5 16 16 35
25 30 14 42 15 80 5 41 -11 46 -10 68 10 13 12 29 22 35 22 7 0 12 7 12 15 0
15 77 55 106 55 8 0 14 -9 14 -20 0 -16 7 -20 31 -20 21 0 40 -10 61 -30 16
-16 34 -30 38 -30 5 0 25 -9 45 -20 37 -21 86 -25 120 -10 18 8 17 9 -6 9 -36
1 -45 16 -48 80 -2 43 2 57 18 73 12 10 21 15 21 11 0 -14 89 91 101 120 6 15
17 27 24 27 8 0 15 6 17 12 4 10 10 10 31 1 21 -10 25 -10 21 1 -8 21 90 58
123 45 19 -7 32 -6 49 6 13 8 24 20 24 25 0 15 61 80 75 80 7 0 15 4 17 8 2 5
42 35 90 68 49 32 88 65 88 72 0 15 3 15 65 -4 29 -9 64 -14 77 -11 38 10 88
67 99 114 10 39 17 45 98 91 133 75 144 81 172 86 34 7 98 70 128 126 49 92
53 101 47 123 -5 20 -10 22 -52 18 -46 -3 -47 -3 -40 22 3 14 2 29 -4 32 -20
12 -10 53 18 75 183 141 225 170 242 170 11 0 37 -7 57 -15 19 -8 37 -15 39
-15 2 0 4 7 4 15 0 8 7 15 15 15 8 0 15 4 15 9 0 5 -7 11 -15 15 -8 3 -15 14
-15 24 0 11 -9 31 -20 45 -28 36 -26 96 4 125 13 12 28 22 34 22 6 0 13 13 17
28 6 28 83 112 103 112 14 0 55 57 50 71 -2 5 -16 -4 -32 -20z"/>
</g>
</svg>
